<svg width="33" height="32" viewBox="0 0 33 32" fill="none" xmlns="http://www.w3.org/2000/svg">
  <rect x="14.8578" y="3.50439" width="6" height="6" transform="rotate(45 14.8578 3.50439)" fill="#ffffff"/>
  <rect x="24.7573" y="13.4038" width="6" height="6" transform="rotate(45 24.7573 13.4038)" fill="#ffffff"/>
  <mask id="path-3-inside-1_218_425" fill="white">
    <path fill-rule="evenodd" clip-rule="evenodd" d="M14.8578 3.50439L19.1004 7.74704L11.3223 15.5252C9.76016 17.0873 9.76016 19.62 11.3223 21.1821C12.8844 22.7442 15.417 22.7442 16.9791 21.1821L24.7573 13.4039L28.9999 17.6465L21.2217 25.4247C17.3165 29.3299 10.9849 29.3299 7.07961 25.4247C3.17437 21.5195 3.17437 15.1878 7.07961 11.2826L14.8578 3.50439Z"/>
  </mask>
  <path d="M19.1004 7.74704L20.5146 9.16125L21.9289 7.74704L20.5146 6.33282L19.1004 7.74704ZM14.8578 3.50439L16.272 2.09018L14.8578 0.675967L13.4436 2.09018L14.8578 3.50439ZM24.7573 13.4039L26.1715 11.9897L24.7573 10.5755L23.3431 11.9897L24.7573 13.4039ZM28.9999 17.6465L30.4141 19.0607L31.8284 17.6465L30.4141 16.2323L28.9999 17.6465ZM20.5146 6.33282L16.272 2.09018L13.4436 4.91861L17.6862 9.16125L20.5146 6.33282ZM12.7365 16.9394L20.5146 9.16125L17.6862 6.33282L9.90804 14.111L12.7365 16.9394ZM9.90804 14.111C7.5649 16.4541 7.5649 20.2531 9.90804 22.5963L12.7365 19.7679C11.9554 18.9868 11.9554 17.7205 12.7365 16.9394L9.90804 14.111ZM9.90804 22.5963C12.2512 24.9394 16.0502 24.9394 18.3933 22.5963L15.5649 19.7679C14.7838 20.5489 13.5175 20.5489 12.7365 19.7679L9.90804 22.5963ZM23.3431 11.9897L15.5649 19.7679L18.3933 22.5963L26.1715 14.8181L23.3431 11.9897ZM30.4141 16.2323L26.1715 11.9897L23.3431 14.8181L27.5857 19.0607L30.4141 16.2323ZM22.636 26.8389L30.4141 19.0607L27.5857 16.2323L19.8075 24.0105L22.636 26.8389ZM19.8075 24.0105C16.6833 27.1347 11.618 27.1347 8.49383 24.0105L5.6654 26.8389C10.3517 31.5252 17.9497 31.5252 22.636 26.8389L19.8075 24.0105ZM8.49383 24.0105C5.36963 20.8863 5.36963 15.821 8.49383 12.6968L5.6654 9.86836C0.979108 14.5546 0.979109 22.1526 5.6654 26.8389L8.49383 24.0105ZM13.4436 2.09018L5.6654 9.86836L8.49383 12.6968L16.272 4.91861L13.4436 2.09018Z" fill="#ffffff" mask="url(#path-3-inside-1_218_425)"/>
</svg>