<svg width="16" height="16" viewBox="0 0 16 16" fill="none" xmlns="http://www.w3.org/2000/svg">
<path d="M11.9875 10.0842L8.7062 13.2186C8.52495 13.4061 8.27808 13.4998 8.0062 13.4998C7.73433 13.4998 7.49058 13.4061 7.3062 13.2186L4.01245 10.0842C3.62183 9.7123 3.62183 9.10605 4.01245 8.73418C4.40308 8.3623 5.03433 8.3623 5.42495 8.73418L6.99995 10.2404V3.45918C6.99995 2.93105 7.44683 2.50293 7.99995 2.50293C8.55308 2.50293 8.99995 2.93105 8.99995 3.45918V10.2404L10.575 8.73418C10.9656 8.3623 11.5968 8.3623 11.9875 8.73418C12.3781 9.10605 12.3781 9.70918 11.9875 10.0842Z" fill="black"/>
</svg>
