<svg width="150" height="30" viewBox="0 0 150 30" fill="none" xmlns="http://www.w3.org/2000/svg">
<path d="M13.4 23.88C17.64 23.88 20.7 21.24 21.4 17.9H19.26C18.68 20.18 16.44 21.94 13.44 21.94C9.78 21.94 7.1 19.24 7.1 15.5C7.1 11.74 9.76 9.06 13.44 9.06C16.36 9.06 18.42 10.62 19.1 12.88H21.24C20.4 9.52 17.54 7.12 13.4 7.12C8.56 7.12 5 10.66 5 15.5C5 20.34 8.56 23.88 13.4 23.88Z" fill="white"/>
<path d="M24.2389 7V23.52H26.2989V17.6C26.2989 15.48 27.7389 13.6 29.7389 13.6C31.5989 13.6 32.7189 14.86 32.7189 17.18V23.52H34.7789V16.82C34.7789 13.74 32.8789 11.8 30.1789 11.8C28.0789 11.8 26.7789 12.98 26.2989 13.82V7H24.2389Z" fill="white"/>
<path d="M43.2745 8.8C39.8745 8.8 37.4145 11.36 37.4145 14.8C37.4145 18.24 39.8745 20.8 43.2745 20.8C46.6545 20.8 49.1145 18.24 49.1145 14.8C49.1145 11.36 46.6545 8.8 43.2745 8.8Z" fill="white"/>
<path d="M52.005 12.08V23.52H54.065V17.6C54.065 15.52 55.705 13.64 58.045 13.64C58.745 13.64 59.305 13.76 59.745 13.96V12C59.345 11.86 58.885 11.8 58.185 11.8C55.945 11.8 54.565 12.98 54.065 13.84V12.08H52.005Z" fill="white"/>
<path d="M66.5847 23.8C69.2047 23.8 71.2647 22.38 71.8847 20.4H69.7847C69.3647 21.34 68.1447 22.06 66.5847 22.06C64.5447 22.06 63.1247 20.6 62.9047 18.64H72.2647C72.3047 18.36 72.3047 18.06 72.3047 17.8C72.3047 14.36 69.9247 11.8 66.5847 11.8C63.2447 11.8 60.8447 14.36 60.8447 17.8C60.8447 21.24 63.2447 23.8 66.5847 23.8ZM70.2847 16.96H62.9047C63.1247 14.98 64.5247 13.54 66.5847 13.54C68.6447 13.54 70.0447 14.96 70.2847 16.96Z" fill="white"/>
<path d="M80.4413 9.8C77.0413 9.8 74.5813 12.36 74.5813 15.8C74.5813 19.24 77.0413 21.8 80.4413 21.8C83.8213 21.8 86.2813 19.24 86.2813 15.8C86.2813 12.36 83.8213 9.8 80.4413 9.8Z" fill="white"/>
<path d="M95.1372 7.5V23.52H97.2372V10.94L106.937 23.42H108.917V7.4H106.797V19.98L97.0972 7.5H95.1372Z" fill="white"/>
<path d="M117.764 7.8C114.364 7.8 111.904 10.36 111.904 13.8C111.904 17.24 114.364 19.8 117.764 19.8C121.144 19.8 123.604 17.24 123.604 13.8C123.604 10.36 121.144 7.8 117.764 7.8Z" fill="white"/>
<path d="M132.124 12.08H129.584V8.6H127.524V12.08H124.984V13.9H127.524V23.52H129.584V13.9H132.124V12.08Z" fill="white"/>
<path d="M139.277 23.8C141.897 23.8 143.957 22.38 144.577 20.4H142.478C142.058 21.34 140.837 22.06 139.277 22.06C137.237 22.06 135.818 20.6 135.598 18.64H144.958C144.998 18.36 144.997 18.06 144.997 17.8C144.997 14.36 142.617 11.8 139.277 11.8C135.937 11.8 133.538 14.36 133.538 17.8C133.538 21.24 135.937 23.8 139.277 23.8ZM142.978 16.96H135.598C135.818 14.98 137.217 13.54 139.277 13.54C141.337 13.54 142.738 14.96 142.978 16.96Z" fill="white"/>
</svg>
