<svg width="24" height="24" viewBox="0 0 24 24" fill="none" xmlns="http://www.w3.org/2000/svg">
<path d="M16.1924 6.29289C16.5829 5.90237 17.2161 5.90237 17.6066 6.29289C17.9971 6.68342 17.9971 7.31658 17.6066 7.70711L7.70711 17.6066C7.31658 17.9971 6.68342 17.9971 6.29289 17.6066C5.90237 17.2161 5.90237 16.5829 6.29289 16.1924L16.1924 6.29289Z" fill="#D63F72"/>
<path d="M17.6066 16.1924C17.9971 16.5829 17.9971 17.2161 17.6066 17.6066C17.2161 17.9971 16.5829 17.9971 16.1924 17.6066L6.29289 7.70711C5.90237 7.31658 5.90237 6.68342 6.29289 6.29289C6.68342 5.90237 7.31658 5.90237 7.70711 6.29289L17.6066 16.1924Z" fill="#D63F72"/>
</svg>
