<svg width="24" height="24" viewBox="0 0 24 24" fill="none" xmlns="http://www.w3.org/2000/svg">
<path d="M11.3264 6.97887C11.4535 7.23294 11.7132 7.39343 11.9972 7.39341C12.2813 7.39339 12.541 7.23286 12.668 6.97877C13.294 5.72655 13.8765 4.88164 14.5501 4.34275C15.1969 3.82529 15.9853 3.54492 17.1281 3.54492C19.5533 3.54492 21.5156 5.50804 21.5156 7.92633C21.5156 10.205 20.3891 12.0393 18.5135 14.0002C17.5746 14.9818 16.4742 15.9686 15.2664 17.0485L15.1987 17.1089C14.1807 18.0191 13.0941 18.9905 11.9972 20.0576C10.9023 18.9925 9.81794 18.0227 8.80198 17.114L8.72881 17.0486C7.52156 15.9688 6.42187 14.982 5.48368 14.0004C3.60966 12.0397 2.48438 10.2053 2.48438 7.92637C2.48438 5.50751 4.44729 3.54497 6.86578 3.54497C8.00865 3.54497 8.79706 3.82533 9.44391 4.34279C10.1176 4.8817 10.7002 5.72662 11.3264 6.97887Z" stroke="#D63F72" stroke-width="1.5" stroke-linejoin="round"/>
</svg>
